<svg xmlns="http://www.w3.org/2000/svg" viewBox="0 0 160 160" role="img" aria-label="U.S. Capitol icon"><defs><linearGradient id="g" x1="0" x2="1"><stop stop-color="#0B3C6D"/><stop offset="1" stop-color="#B22234"/></linearGradient></defs><rect width="160" height="160" rx="32" fill="#eef4fb"/><path d="M38 124h84v12H38zM48 106h64v14H48zM54 70h52v32H54z" fill="url(#g)"/><path d="M64 70c0-18 32-18 32 0z" fill="#C9A227"/><path d="M80 24l8 17h18L92 53l5 17-17-10-17 10 5-17-14-12h18z" fill="#C9A227"/><path d="M62 78h8v22h-8zm15 0h8v22h-8zm15 0h8v22h-8z" fill="#fff"/></svg>
