<svg xmlns="http://www.w3.org/2000/svg" viewBox="0 0 1000 500"><rect width="1000" height="500" rx="30" fill="#F8F8F6"/><text x="50" y="62" font-family="Georgia" font-size="34" font-weight="700" fill="#0B3C6D">Election Cycle</text><g fill="none" stroke="#0B3C6D" stroke-width="8" stroke-linecap="round"><path d="M500 120 A150 150 0 1 1 499 120" opacity=".18"/><path d="M500 120 A150 150 0 0 1 650 270"/><path d="M650 270 A150 150 0 0 1 500 420"/><path d="M500 420 A150 150 0 0 1 350 270"/><path d="M350 270 A150 150 0 0 1 500 120"/></g><g font-family="Arial" text-anchor="middle" font-weight="700"><circle cx="500" cy="120" r="54" fill="#0B3C6D"/><text x="500" y="127" fill="white">Primary</text><circle cx="650" cy="270" r="54" fill="#B22234"/><text x="650" y="264" fill="white">General</text><text x="650" y="284" fill="white">Election</text><circle cx="500" cy="420" r="54" fill="#2E8B57"/><text x="500" y="414" fill="white">Winner</text><text x="500" y="434" fill="white">Serves</text><circle cx="350" cy="270" r="54" fill="#C9A227"/><text x="350" y="264" fill="white">Next</text><text x="350" y="284" fill="white">Cycle</text><text x="500" y="270" font-size="22" fill="#0B3C6D">Citizens choose leaders</text></g></svg>