<svg xmlns="http://www.w3.org/2000/svg" viewBox="0 0 900 520"><rect width="900" height="520" rx="30" fill="#F8F8F6"/><text x="50" y="62" font-family="Georgia" font-size="34" font-weight="700" fill="#0B3C6D">United States Geography</text><g transform="translate(115 130)"><path d="M60 80 L220 45 L360 60 L520 90 L650 150 L610 250 L450 300 L290 270 L120 300 L30 210z" fill="#dbeafe" stroke="#0B3C6D" stroke-width="4"/><path d="M60 80 L220 45 L200 250 L120 300 L30 210z" fill="#93c5fd" opacity=".75"/><path d="M220 45 L360 60 L360 270 L200 250z" fill="#fef3c7" opacity=".85"/><path d="M360 60 L520 90 L450 300 L360 270z" fill="#bbf7d0" opacity=".85"/><path d="M520 90 L650 150 L610 250 L450 300z" fill="#fecaca" opacity=".85"/><text x="130" y="175" font-family="Arial" font-weight="700" fill="#0B3C6D">West</text><text x="275" y="170" font-family="Arial" font-weight="700" fill="#0B3C6D">Midwest</text><text x="420" y="190" font-family="Arial" font-weight="700" fill="#0B3C6D">South</text><text x="550" y="180" font-family="Arial" font-weight="700" fill="#0B3C6D">East</text></g><text x="130" y="455" font-family="Arial" font-size="18" fill="#555">Pacific Ocean on the West · Atlantic Ocean on the East · Canada North · Mexico South</text></svg>