<svg xmlns="http://www.w3.org/2000/svg" viewBox="0 0 900 360" role="img" aria-label="Citizenship Path"><defs><linearGradient id="g" x1="0" x2="1"><stop stop-color="#2E8B57"/><stop offset="1" stop-color="#163f6b"/></linearGradient><marker id="a" markerWidth="10" markerHeight="10" refX="6" refY="3" orient="auto"><path d="M0,0 L0,6 L7,3 z" fill="#C9A227"/></marker></defs><rect width="900" height="360" rx="28" fill="url(#g)"/><circle cx="820" cy="60" r="95" fill="rgba(255,255,255,.08)"/><text x="450" y="78" text-anchor="middle" font-family="Georgia" font-size="36" font-weight="700" fill="white">Citizenship Path</text><text x="450" y="115" text-anchor="middle" font-family="Arial" font-size="16" fill="#EAF2FF">Visual reference for the Understanding America handbook</text><rect x="70" y="165" width="150" height="78" rx="18" fill="white" stroke="#C9A227" stroke-width="3"/><text x="145" y="207" text-anchor="middle" font-family="Georgia" font-size="18" fill="#2E8B57">Green Card</text><path d="M220 204 L260 204" stroke="#C9A227" stroke-width="4" marker-end="url(#a)"/><rect x="270" y="165" width="150" height="78" rx="18" fill="white" stroke="#C9A227" stroke-width="3"/><text x="345" y="207" text-anchor="middle" font-family="Georgia" font-size="18" fill="#2E8B57">N-400</text><path d="M420 204 L460 204" stroke="#C9A227" stroke-width="4" marker-end="url(#a)"/><rect x="470" y="165" width="150" height="78" rx="18" fill="white" stroke="#C9A227" stroke-width="3"/><text x="545" y="207" text-anchor="middle" font-family="Georgia" font-size="18" fill="#2E8B57">Interview</text><path d="M620 204 L660 204" stroke="#C9A227" stroke-width="4" marker-end="url(#a)"/><rect x="670" y="165" width="150" height="78" rx="18" fill="white" stroke="#C9A227" stroke-width="3"/><text x="745" y="207" text-anchor="middle" font-family="Georgia" font-size="18" fill="#2E8B57">Oath</text><text x="450" y="305" text-anchor="middle" font-family="Arial" font-size="15" fill="#EAF2FF">Milestone 3 integrated illustration asset</text></svg>