<svg xmlns="http://www.w3.org/2000/svg" viewBox="0 0 1200 480" role="img" aria-labelledby="h09-title h09-desc">
  <title id="h09-title">Chapter 9 hero — Congress</title>
  <desc id="h09-desc">A flat geometric banner: a navy title panel beside a stylized U.S. Capitol with a central dome, columns, and a flag, where Congress meets.</desc>
  <defs><style>
    .title{font-family:Arial,Helvetica,sans-serif;font-weight:800;fill:#ffffff}
    .sub{font-family:Arial,Helvetica,sans-serif;fill:#dbeafe}
  </style></defs>
  <rect width="1200" height="480" fill="#f8f8f6"/>
  <rect x="0" y="0" width="660" height="480" fill="#0b3c6d"/>
  <polygon fill="#c9a227" points="80,84 95,124 138,124 103,150 117,192 80,166 43,192 57,150 22,124 65,124"/>
  <text class="title" x="80" y="282" font-size="56">Congress</text>
  <text class="sub" x="84" y="338" font-size="22">Chapter 9</text>

  <!-- Capitol -->
  <g transform="translate(930 300)">
    <rect x="-210" y="120" width="420" height="40" rx="6" fill="#0b3c6d"/>
    <rect x="-200" y="40" width="400" height="80" fill="#ffffff" stroke="#d8dee8" stroke-width="2"/>
    <g fill="#ffffff" stroke="#d8dee8" stroke-width="2">
      <rect x="-186" y="40" width="16" height="80"/><rect x="-146" y="40" width="16" height="80"/>
      <rect x="-106" y="40" width="16" height="80"/><rect x="-66" y="40" width="16" height="80"/>
      <rect x="-26" y="40" width="16" height="80"/><rect x="14" y="40" width="16" height="80"/>
      <rect x="54" y="40" width="16" height="80"/><rect x="94" y="40" width="16" height="80"/>
      <rect x="134" y="40" width="16" height="80"/><rect x="174" y="40" width="16" height="80"/>
    </g>
    <rect x="-120" y="10" width="240" height="30" fill="#0b3c6d"/>
    <path d="M-100 10 A100 100 0 0 1 100 10 Z" fill="#0b3c6d"/>
    <rect x="-8" y="-78" width="16" height="40" fill="#c9a227"/>
    <circle cx="0" cy="-86" r="11" fill="#c9a227"/>
  </g>
</svg>
